<svg width="1024" height="1024" viewBox="0 0 1024 1024" fill="none" xmlns="http://www.w3.org/2000/svg">
  <defs>
    <linearGradient id="bg" x1="128" y1="128" x2="896" y2="896" gradientUnits="userSpaceOnUse">
      <stop stop-color="#0B2A3A"/>
      <stop offset="1" stop-color="#0E4F6B"/>
    </linearGradient>
    <linearGradient id="book" x1="286" y1="250" x2="738" y2="772" gradientUnits="userSpaceOnUse">
      <stop stop-color="#F4F7FB"/>
      <stop offset="1" stop-color="#DBE7F5"/>
    </linearGradient>
    <linearGradient id="accent" x1="460" y1="260" x2="620" y2="690" gradientUnits="userSpaceOnUse">
      <stop stop-color="#3CC4FF"/>
      <stop offset="1" stop-color="#1D8DFF"/>
    </linearGradient>
    <filter id="shadow" x="180" y="188" width="664" height="704" filterUnits="userSpaceOnUse" color-interpolation-filters="sRGB">
      <feFlood flood-opacity="0" result="BackgroundImageFix"/>
      <feColorMatrix in="SourceAlpha" type="matrix" values="0 0 0 0 0 0 0 0 0 0 0 0 0 0 0 0 0 0 127 0" result="hardAlpha"/>
      <feOffset dy="16"/>
      <feGaussianBlur stdDeviation="24"/>
      <feComposite in2="hardAlpha" operator="out"/>
      <feColorMatrix type="matrix" values="0 0 0 0 0.012 0 0 0 0 0.093 0 0 0 0 0.149 0 0 0 0.35 0"/>
      <feBlend mode="normal" in2="BackgroundImageFix" result="effect1_dropShadow_1_1"/>
      <feBlend mode="normal" in="SourceGraphic" in2="effect1_dropShadow_1_1" result="shape"/>
    </filter>
  </defs>

  <rect x="64" y="64" width="896" height="896" rx="224" fill="url(#bg)"/>

  <g filter="url(#shadow)">
    <path d="M274 276C274 244 300 218 332 218H512V778H332C300 778 274 752 274 720V276Z" fill="url(#book)"/>
    <path d="M750 276C750 244 724 218 692 218H512V778H692C724 778 750 752 750 720V276Z" fill="url(#book)"/>
    <path d="M512 218V778" stroke="#A9BCD4" stroke-width="14"/>
  </g>

  <rect x="348" y="324" width="132" height="14" rx="7" fill="#B7C9DF"/>
  <rect x="348" y="364" width="118" height="14" rx="7" fill="#B7C9DF"/>
  <rect x="348" y="404" width="144" height="14" rx="7" fill="#B7C9DF"/>

  <rect x="544" y="324" width="132" height="14" rx="7" fill="#B7C9DF"/>
  <rect x="544" y="364" width="118" height="14" rx="7" fill="#B7C9DF"/>
  <rect x="544" y="404" width="144" height="14" rx="7" fill="#B7C9DF"/>

  <path d="M463 618C479 585 510 562 548 562C596 562 636 602 636 650C636 698 596 738 548 738C512 738 482 716 465 686" stroke="url(#accent)" stroke-width="26" stroke-linecap="round"/>
  <path d="M520 590L486 650L520 710" stroke="url(#accent)" stroke-width="26" stroke-linecap="round" stroke-linejoin="round"/>

  <circle cx="700" cy="302" r="18" fill="#5FD4FF"/>
  <circle cx="742" cy="342" r="10" fill="#8DE2FF"/>
  <circle cx="664" cy="348" r="9" fill="#8DE2FF"/>
</svg>
